<svg width="112" height="18" viewBox="0 0 112 18" fill="none" xmlns="http://www.w3.org/2000/svg">
<path d="M108.25 15.75V12.35L97.7501 1.75H96.2501V3.65L108.25 15.75ZM108.45 17.35L96.2501 5.05V16.35H97.9501C98.2501 16.35 98.4501 16.55 98.4501 16.85C98.4501 17.15 98.2501 17.35 97.9501 17.35H93.6501C93.3501 17.35 93.1501 17.15 93.1501 16.85C93.1501 16.55 93.3501 16.35 93.6501 16.35H95.2501V1.75H93.6501C93.3501 1.75 93.1501 1.55 93.1501 1.25C93.1501 0.95 93.3501 0.75 93.6501 0.75H97.9501C98.2501 0.75 98.3501 0.95 98.5501 1.05L108.35 10.85V1.75H106.85C106.55 1.75 106.35 1.55 106.35 1.25C106.35 0.95 106.55 0.75 106.85 0.75H111.15C111.45 0.75 111.65 0.95 111.65 1.25C111.65 1.55 111.45 1.75 111.15 1.75H109.35V16.95C109.35 17.15 109.25 17.35 109.05 17.45C109.05 17.45 108.95 17.45 108.85 17.45C108.65 17.45 108.55 17.45 108.45 17.35Z" fill="#454342"/>
<path d="M80.45 11.65L78.15 6.35001L75.85 11.65H80.45ZM81.55 11.65H84.15L80.05 2.05001L78.75 5.05001L81.55 11.65ZM86.15 16.35L84.55 12.65H81.95L83.55 16.35H86.15ZM72.75 16.35L79.45 0.750006C79.55 0.450006 79.75 0.350006 79.95 0.350006C80.15 0.350006 80.35 0.450006 80.45 0.650006L87.25 16.35H89.35C89.65 16.35 89.85 16.55 89.85 16.85C89.85 17.15 89.65 17.35 89.35 17.35H80.85C80.55 17.35 80.35 17.15 80.35 16.85C80.35 16.55 80.55 16.35 80.85 16.35H82.45L80.85 12.65H75.45L73.85 16.35H75.45C75.75 16.35 75.95 16.55 75.95 16.85C75.95 17.15 75.75 17.35 75.45 17.35H70.75C70.45 17.35 70.25 17.15 70.25 16.85C70.25 16.55 70.45 16.35 70.75 16.35H72.75Z" fill="#454342"/>
<path d="M63.25 13.05L63.15 12.95L58.45 1.75H55.85L61.95 16.05L63.25 13.05ZM53.25 12.95L48.45 1.75H45.85L51.95 16.05L53.25 13.05V12.95ZM49.35 1.25L53.85 11.75L56.45 5.75L54.75 1.75H53.15C52.85 1.75 52.65 1.55 52.65 1.25C52.65 0.95 52.85 0.75 53.15 0.75H61.25C61.55 0.75 61.75 0.95 61.75 1.25C61.75 1.55 61.55 1.75 61.25 1.75H59.55L63.85 11.75L68.15 1.75H66.55C66.25 1.75 66.05 1.55 66.05 1.25C66.05 0.95 66.25 0.75 66.55 0.75H70.55C69.95 0.75 71.05 0.95 71.05 1.25C71.05 1.55 69.95 1.75 70.55 1.75H69.25L62.55 17.35C62.45 17.55 62.25 17.65 62.05 17.65H61.95H61.85C61.65 17.65 61.45 17.55 61.35 17.35L56.95 7.05L52.55 17.35C52.45 17.55 52.25 17.65 52.05 17.65H51.95H51.85C51.65 17.65 51.45 17.55 51.35 17.35L44.75 1.75H42.75C42.45 1.75 42.25 1.55 42.25 1.25C42.25 0.95 42.45 0.75 42.75 0.75H48.65C48.95 0.75 49.15 0.95 49.35 1.25Z" fill="#454342"/>
<path d="M39.15 9.15002C39.15 7.15002 38.35 5.25002 36.95 3.75002C36.75 3.45002 36.45 3.25002 36.15 3.05002V13.15C36.15 14.15 35.85 15.05 35.35 15.75C35.95 15.45 36.55 14.95 36.95 14.55C38.35 13.05 39.15 11.15 39.15 9.15002ZM26.95 5.25002C26.95 4.25002 27.25 3.35002 27.75 2.65002C27.25 2.95002 26.75 3.35002 26.25 3.85002C24.85 5.25002 24.05 7.15002 24.05 9.25002C24.05 11.25 24.85 13.15 26.25 14.65L26.95 15.25V5.25002ZM28.25 1.25002C29.35 0.750018 30.45 0.550018 31.65 0.550018C32.85 0.550018 33.95 0.750018 34.95 1.25002C35.95 1.65002 36.85 2.25002 37.65 3.05002C38.45 3.85002 39.05 4.75002 39.45 5.75002C39.95 6.85002 40.15 7.95002 40.15 9.15002C40.15 10.25 39.95 11.45 39.45 12.45C39.05 13.45 38.45 14.35 37.65 15.15C36.85 15.95 35.95 16.55 34.95 16.95C33.85 17.35 32.75 17.65 31.55 17.65C30.45 17.65 29.25 17.45 28.25 16.95C27.25 16.55 26.35 15.95 25.55 15.15C24.75 14.35 24.15 13.45 23.75 12.45C23.35 11.35 23.05 10.25 23.05 9.15002C23.05 7.95002 23.25 6.85002 23.75 5.75002C24.15 4.75002 24.85 3.85002 25.55 3.05002C26.25 2.25002 27.25 1.65002 28.25 1.25002ZM35.05 2.35002C33.95 1.85002 32.75 1.55002 31.55 1.55002C29.55 1.55002 27.95 3.25002 27.95 5.25002V15.85C29.05 16.45 30.25 16.75 31.45 16.75C32.45 16.75 33.35 16.35 34.05 15.75C34.75 15.05 35.15 14.15 35.15 13.15V2.35002H35.05Z" fill="#454342"/>
<path d="M12.4501 11.45C12.9501 12.15 13.0501 13.05 13.0501 14.25C13.0501 14.85 13.0501 15.45 13.2501 15.85C13.3501 16.05 13.5501 16.35 14.3501 16.35H15.8501C15.5501 15.85 15.5501 15.15 15.5501 14.35C15.5501 13.45 15.4501 12.65 15.1501 12.25C14.5501 11.45 13.1501 11.45 12.6501 11.45H12.5501H12.3501C12.3501 11.35 12.3501 11.45 12.4501 11.45ZM12.3501 10.25C13.1501 10.25 13.9501 9.95 14.5501 9.35C15.1501 8.75 15.4501 7.95 15.4501 7.15V4.95C15.4501 4.05 15.1501 3.25 14.5501 2.65C13.9501 2.05 13.1501 1.75 12.3501 1.75H11.6501C12.5501 2.55 13.1501 3.65 13.1501 4.95V7.15C13.1501 8.25 12.7501 9.35 11.9501 10.15L11.7501 10.35H12.3501V10.25ZM6.8501 10.25V1.75H4.4501V10.35H6.8501V10.25ZM6.8501 16.35V11.35H4.4501V16.35H6.8501ZM12.1501 4.95C12.1501 3.15 10.7501 1.75 8.9501 1.75H7.8501V10.35H8.9501C9.8501 10.35 10.5501 10.05 11.1501 9.45C11.7501 8.85 12.0501 8.05 12.0501 7.25V4.95H12.1501ZM11.6501 12.15C11.0501 11.35 9.5501 11.35 9.1501 11.35H9.0501H7.8501V16.35H9.5501C9.8501 16.35 10.0501 16.55 10.0501 16.85C10.0501 17.15 9.8501 17.35 9.5501 17.35H1.7501C1.4501 17.35 1.2501 17.15 1.2501 16.85C1.2501 16.55 1.4501 16.35 1.7501 16.35H3.4501V11.35H1.8501C1.5501 11.35 1.3501 11.05 1.3501 10.75C1.3501 10.45 1.5501 10.25 1.8501 10.25H3.4501V1.75H1.3501V3.35C1.3501 3.65 1.1501 3.85 0.850098 3.85C0.550098 3.85 0.350098 3.55 0.350098 3.25V1.25C0.350098 0.95 0.550098 0.75 0.850098 0.75H12.3501C13.4501 0.75 14.5501 1.15 15.2501 1.95C16.0501 2.75 16.4501 3.75 16.4501 4.95V7.15C16.4501 8.25 16.0501 9.35 15.2501 10.15C15.0501 10.35 14.8501 10.55 14.6501 10.65C15.1501 10.85 15.6501 11.15 15.9501 11.55C16.4501 12.25 16.5501 13.15 16.5501 14.35C16.5501 14.95 16.5501 15.55 16.7501 15.95C16.8501 16.15 17.1501 16.45 17.8501 16.45C18.1501 16.45 18.3501 16.65 18.3501 16.95C18.3501 17.25 18.1501 17.45 17.8501 17.45H14.3501C13.4501 17.45 12.7501 17.05 12.3501 16.35C12.0501 15.85 12.0501 15.15 12.0501 14.35C12.0501 13.35 11.9501 12.55 11.6501 12.15Z" fill="#454342"/>
</svg>
