<svg xmlns="http://www.w3.org/2000/svg" version="1.1" xmlns:xlink="http://www.w3.org/1999/xlink" xmlns:svgjs="http://svgjs.com/svgjs" width="1000" height="1000"><rect width="1000" height="1000" rx="500" ry="500" fill="#f6f1eb"></rect><g transform="matrix(10.9375,0,0,10.9375,149.5031467974186,150.49685794115067)"><svg xmlns="http://www.w3.org/2000/svg" version="1.1" xmlns:xlink="http://www.w3.org/1999/xlink" xmlns:svgjs="http://svgjs.com/svgjs" width="64" height="64"><svg version="1.1" id="Layer_1" xmlns="http://www.w3.org/2000/svg" xmlns:xlink="http://www.w3.org/1999/xlink" x="0px" y="0px" viewBox="0 0 64 64" style="enable-background:new 0 0 64 64;" xml:space="preserve">
<style type="text/css">
	.st0{fill:#454342;}
</style>
<path class="st0" d="M58.6,55c-2.2,0-3.1-0.9-3.4-1.6c-0.6-1.3-0.6-3.1-0.6-5c0-3.8-0.3-6.6-1.9-8.8c-0.9-1.3-2.5-2.2-4.1-2.8
	c0.6-0.3,1.3-0.9,1.9-1.6c2.5-2.5,3.8-5.9,3.8-9.4V19c0-3.8-1.3-6.9-3.8-9.4c-2.2-2.5-5.6-3.8-9.1-3.8h-36c-0.9,0-1.6,0.6-1.6,1.6
	v6.3c0,0.9,0.6,1.9,1.6,1.9C6.3,15.6,7,14.9,7,14V9h6.6v26.6h-5c-0.9,0-1.6,0.6-1.6,1.6C7,38.1,7.6,39,8.5,39h5v15.7H8.2
	c-0.9,0-1.6,0.6-1.6,1.6c0,0.9,0.6,1.6,1.6,1.6h24.4c0.9,0,1.6-0.6,1.6-1.6c0-0.9-0.6-1.6-1.6-1.6h-5.3V39h3.8h0.3
	c1.3,0,5.9,0,7.8,2.5c0.9,1.3,1.3,3.8,1.3,6.9c0,2.5,0,4.7,0.9,6.3c1.3,2.2,3.4,3.4,6.3,3.4h11c0.9,0,1.6-0.6,1.6-1.6
	C60.2,55.6,59.5,55,58.6,55z M24.2,54.7h-7.5V39h7.5V54.7z M24.2,35.6v0.3h-7.5V9h7.5V35.6z M37.6,33.1c-1.9,1.9-4.1,2.8-6.9,2.8
	h-3.4V9h3.4c5.6,0,9.7,4.4,9.7,10v7.2C40.5,28.7,39.5,31.2,37.6,33.1z M39.5,35.9l0.6-0.6c2.5-2.5,3.8-5.9,3.8-9.4V19
	c0-4.1-1.9-7.5-4.7-10h2.2c2.5,0,5,0.9,6.9,2.8c1.9,1.9,2.8,4.4,2.8,7.2v6.9c0,2.5-0.9,5-2.8,6.9c-1.9,1.9-4.4,3.1-6.9,3.1H39.5z
	 M47.7,54.7c-2.5,0-3.1-0.9-3.4-1.6c-0.6-1.3-0.6-3.1-0.6-5c0-3.8-0.3-6.6-1.9-8.8H42h0.3c1.6,0,5.9,0,7.8,2.5
	c0.9,1.3,1.3,3.8,1.3,6.6c0,2.5,0,4.7,0.9,6.3H47.7z"></path>
</svg></svg></g></svg>