<svg width="17" height="16" fill="none" xmlns="http://www.w3.org/2000/svg">
  <g clip-path="url(#a)">
    <path
      d="M6.507 1.071a.5.5 0 0 1 .172.686L4.133 6h9.234L10.82 1.757a.5.5 0 0 1 .858-.514L14.533 6h1.217a1 1 0 0 1 1 1v1a1 1 0 0 1-1 1v4.5a2.5 2.5 0 0 1-2.5 2.5h-9a2.5 2.5 0 0 1-2.5-2.5V9a1 1 0 0 1-1-1V7a1 1 0 0 1 1-1h1.217L5.82 1.243a.5.5 0 0 1 .686-.172h.001ZM2.75 9v4.5a1.5 1.5 0 0 0 1.5 1.5h9a1.5 1.5 0 0 0 1.5-1.5V9h-12Zm-1-2v1h14V7h-14Zm3 3a.5.5 0 0 1 .5.5v3a.5.5 0 0 1-1 0v-3a.5.5 0 0 1 .5-.5Zm2 0a.5.5 0 0 1 .5.5v3a.5.5 0 0 1-1 0v-3a.5.5 0 0 1 .5-.5Zm2 0a.5.5 0 0 1 .5.5v3a.5.5 0 0 1-1 0v-3a.5.5 0 0 1 .5-.5Zm2 0a.5.5 0 0 1 .5.5v3a.5.5 0 0 1-1 0v-3a.5.5 0 0 1 .5-.5Zm2 0a.5.5 0 0 1 .5.5v3a.5.5 0 0 1-1 0v-3a.5.5 0 0 1 .5-.5Z"
      fill="currentColor"
    ></path>
  </g>
  <defs>
    <clipPath id="a">
      <path fill="#fff" transform="translate(.75)" d="M0 0h16v16H0z"></path>
    </clipPath>
  </defs>
</svg>