<svg width="17" height="18" viewBox="0 0 17 18" fill="none" xmlns="http://www.w3.org/2000/svg">
<g clip-path="url(#clip0_914_1242)">
<path d="M16.9489 5.29551C16.9347 4.59037 16.8012 3.89272 16.5538 3.23225C16.3403 2.66507 16.0058 2.15128 15.5734 1.72669C15.1488 1.29429 14.635 0.959706 14.0678 0.746271C13.4073 0.498894 12.7097 0.365304 12.0045 0.351181C11.0979 0.309852 10.8085 0.300049 8.5 0.300049C6.19152 0.300049 5.90209 0.309852 4.99546 0.351181C4.29032 0.365304 3.59267 0.498894 2.9322 0.746271C2.36502 0.959706 1.85123 1.29429 1.42664 1.72669C0.99424 2.15128 0.659657 2.66507 0.446222 3.23225C0.198845 3.89272 0.065255 4.59037 0.0511322 5.29551C0.0098033 6.20214 0 6.49157 0 8.80005C0 11.1085 0.0098033 11.398 0.0511322 12.3046C0.065255 13.0097 0.198845 13.7074 0.446222 14.3679C0.659657 14.935 0.99424 15.4488 1.42664 15.8734C1.85121 16.3058 2.36501 16.6404 2.9322 16.8538C3.59267 17.1012 4.29032 17.2348 4.99546 17.2489C5.90209 17.2903 6.19152 17.3 8.5 17.3C10.8085 17.3 11.0979 17.2903 12.0045 17.2489C12.7097 17.2348 13.4073 17.1012 14.0678 16.8538C14.6325 16.6354 15.1453 16.3015 15.5734 15.8734C16.0014 15.4453 16.3354 14.9325 16.5538 14.3679C16.8011 13.7074 16.9347 13.0097 16.9489 12.3046C16.9902 11.398 17 11.1085 17 8.80005C17 6.49157 16.9902 6.20214 16.9489 5.29551ZM15.4189 12.2348C15.4126 12.7738 15.3135 13.3077 15.1262 13.8131C14.9848 14.1797 14.7682 14.5126 14.4904 14.7904C14.2126 15.0683 13.8796 15.2849 13.513 15.4263C13.0076 15.6136 12.4737 15.7126 11.9347 15.719C11.0385 15.7598 10.7697 15.7685 8.5 15.7685C6.23025 15.7685 5.96146 15.7598 5.06526 15.719C4.52628 15.7126 3.9924 15.6136 3.48696 15.4263C3.11775 15.29 2.78378 15.0728 2.50961 14.7905C2.22728 14.5163 2.01001 14.1823 1.87378 13.8131C1.68645 13.3077 1.58744 12.7738 1.58106 12.2348C1.5402 11.3385 1.53155 11.0697 1.53155 8.80005C1.53155 6.53042 1.5402 6.26163 1.58107 5.36531C1.58745 4.82632 1.68646 4.29245 1.87378 3.78701C2.01001 3.4178 2.22727 3.08383 2.5096 2.80965C2.78377 2.52733 3.11775 2.31006 3.48696 2.17383C3.9924 1.98651 4.52627 1.88749 5.06526 1.88111C5.96158 1.84025 6.23037 1.8316 8.5 1.8316C10.7696 1.8316 11.0384 1.84025 11.9347 1.88111C12.4737 1.8875 13.0076 1.98652 13.513 2.17384C13.8822 2.31007 14.2162 2.52733 14.4904 2.80965C14.7727 3.08383 14.99 3.4178 15.1262 3.78701C15.3135 4.29245 15.4126 4.82632 15.4189 5.36531C15.4598 6.26159 15.4685 6.53047 15.4685 8.80005C15.4685 11.0696 15.4598 11.3385 15.4189 12.2348ZM8.5 4.43517C7.63671 4.43517 6.7928 4.69116 6.075 5.17078C5.3572 5.6504 4.79774 6.3321 4.46737 7.12968C4.13701 7.92726 4.05057 8.80489 4.21899 9.6516C4.38741 10.4983 4.80312 11.276 5.41356 11.8865C6.024 12.4969 6.80175 12.9126 7.64845 13.0811C8.49516 13.2495 9.37279 13.163 10.1704 12.8327C10.9679 12.5023 11.6496 11.9428 12.1293 11.225C12.6089 10.5072 12.8649 9.66334 12.8649 8.80005C12.8649 7.64241 12.405 6.5322 11.5864 5.71362C10.7679 4.89505 9.65763 4.43518 8.5 4.43517ZM8.5 11.6334C7.93962 11.6334 7.39182 11.4672 6.92588 11.1559C6.45994 10.8445 6.09679 10.402 5.88234 9.88432C5.66789 9.36659 5.61178 8.79691 5.72111 8.24729C5.83043 7.69768 6.10028 7.19283 6.49653 6.79658C6.89278 6.40033 7.39763 6.13048 7.94724 6.02116C8.49686 5.91183 9.06655 5.96794 9.58427 6.18239C10.102 6.39684 10.5445 6.75999 10.8558 7.22593C11.1672 7.69187 11.3333 8.23967 11.3333 8.80005C11.3333 9.5515 11.0348 10.2722 10.5035 10.8035C9.97212 11.3349 9.25145 11.6334 8.5 11.6334ZM14.0573 4.26275C14.0573 4.46449 13.9975 4.66169 13.8854 4.82943C13.7733 4.99717 13.614 5.1279 13.4277 5.20511C13.2413 5.28231 13.0362 5.30251 12.8383 5.26315C12.6405 5.22379 12.4587 5.12665 12.3161 4.984C12.1734 4.84135 12.0763 4.6596 12.0369 4.46174C11.9976 4.26388 12.0178 4.05879 12.095 3.87241C12.1722 3.68603 12.3029 3.52673 12.4706 3.41465C12.6384 3.30257 12.8356 3.24275 13.0373 3.24275C13.3078 3.24275 13.5673 3.35021 13.7586 3.5415C13.9499 3.73279 14.0573 3.99223 14.0573 4.26275Z" fill="#454342"/>
</g>
<defs>
<clipPath id="clip0_914_1242">
<rect width="17" height="17" fill="white" transform="translate(0 0.300049)"/>
</clipPath>
</defs>
</svg>
