<svg width="18" height="20" viewBox="0 0 18 20" fill="none" xmlns="http://www.w3.org/2000/svg">
<g clip-path="url(#clip0_914_1238)">
<path d="M7.04165 13.4021C6.6106 15.8003 6.08531 18.0992 4.52747 19.3001C4.04726 15.6758 5.23305 12.9545 5.78456 10.0651C4.84461 8.38443 5.89765 5.00392 7.87834 5.83729C10.3163 6.86137 5.76735 12.0828 8.82074 12.7359C12.0093 13.416 13.3107 6.85789 11.3333 4.72526C8.47738 1.64432 3.01881 4.65299 3.69078 9.06366C3.85386 10.1417 4.90198 10.4683 4.10954 11.9565C2.28127 11.5263 1.7355 9.99369 1.80597 7.95076C1.91906 4.60683 4.63237 2.26695 7.35469 1.94214C10.7973 1.53199 14.0286 3.28581 14.4752 6.7264C14.9775 10.6111 12.9214 14.8189 9.2395 14.5158C8.24137 14.4331 7.82343 13.9071 7.04165 13.4021Z" fill="#454342"/>
</g>
<defs>
<clipPath id="clip0_914_1238">
<rect width="18" height="19" fill="white" transform="translate(0 0.300049)"/>
</clipPath>
</defs>
</svg>
