<svg width="18" height="20" viewBox="0 0 18 20" fill="none" xmlns="http://www.w3.org/2000/svg">
<path d="M15.5844 6.23378C15.5916 6.38768 15.5943 6.54348 15.5943 6.69738C15.5943 11.4379 12.177 16.9023 5.92827 16.9023C4.00857 16.9023 2.22387 16.3085 0.719971 15.2901C0.986371 15.3234 1.25637 15.3405 1.52997 15.3405C3.12297 15.3405 4.58727 14.7667 5.74917 13.8062C4.26327 13.7768 3.00777 12.7413 2.57577 11.3163C2.78277 11.3571 2.99607 11.379 3.21477 11.379C3.52527 11.379 3.82587 11.3362 4.11027 11.2545C2.55597 10.9239 1.38507 9.47518 1.38507 7.73668C1.38507 7.72148 1.38507 7.70723 1.38507 7.69203C1.84317 7.96088 2.36787 8.12238 2.92407 8.14138C2.01237 7.49728 1.41207 6.40098 1.41207 5.15553C1.41207 4.49908 1.57947 3.88253 1.87287 3.35243C3.54777 5.52318 6.05247 6.95008 8.87577 7.10018C8.81817 6.83703 8.78847 6.56438 8.78847 6.28223C8.78847 4.30243 10.3086 2.69788 12.1851 2.69788C13.1625 2.69788 14.0454 3.13203 14.6655 3.82933C15.4386 3.66783 16.1658 3.36953 16.8228 2.95913C16.569 3.79608 16.0299 4.49908 15.3288 4.94273C16.0164 4.85533 16.6698 4.66438 17.28 4.37843C16.8246 5.09853 16.2486 5.72933 15.5844 6.23378Z" fill="#454342"/>
</svg>
